<svg xmlns="http://www.w3.org/2000/svg" viewBox="0 0 128 128" role="img" aria-labelledby="title desc">
  <title id="title">Rural Health Network Logo</title>
  <desc id="desc">Healthcare and rural clinic icon with cross and heart motif.</desc>
  <defs>
    <linearGradient id="bg" x1="0" x2="1" y1="0" y2="1">
      <stop offset="0%" stop-color="#0d6b62"/>
      <stop offset="100%" stop-color="#123f3a"/>
    </linearGradient>
    <linearGradient id="heart" x1="0" x2="1" y1="0" y2="1">
      <stop offset="0%" stop-color="#effcf8"/>
      <stop offset="100%" stop-color="#dff7f2"/>
    </linearGradient>
  </defs>

  <rect width="128" height="128" rx="24" fill="url(#bg)"/>

  <path d="M40 18h48c12.2 0 22 9.8 22 22v48c0 12.2-9.8 22-22 22H40c-12.2 0-22-9.8-22-22V40c0-12.2 9.8-22 22-22z" fill="rgba(255,255,255,0.08)"/>

  <path d="M64 30c10 0 18 8.1 18 18 0 6.2-2.5 11.2-7 15.4L64 64l-11-10.6c-4.5-4.2-7-9.2-7-15.4 0-9.9 8-18 18-18z" fill="url(#heart)" opacity="0.95"/>

  <rect x="58" y="38" width="12" height="52" rx="5" fill="#ffffff"/>
  <rect x="38" y="58" width="52" height="12" rx="5" fill="#ffffff"/>

  <path d="M19 91c10-11 23-17 45-17s35 6 45 17v9H19v-9z" fill="rgba(255,255,255,0.18)"/>
  <path d="M24 92h80" stroke="#dff7f2" stroke-width="4" stroke-linecap="round" opacity="0.75"/>
</svg>
